<svg xmlns="http://www.w3.org/2000/svg" data-name="Layer 1" viewBox="0 0 100 100" x="0px" y="0px"><title>08</title><path d="M92.53,39.77a3.49,3.49,0,0,0-.14-.46l0-.14a3.5,3.5,0,0,0-.28-.52L92,38.53a3.49,3.49,0,0,0-.29-.36l-.12-.12a3.49,3.49,0,0,0-.45-.37h0a3.51,3.51,0,0,0-.43-.25L51.52,18.54a3.51,3.51,0,0,0-3,0L9.35,37.42a3.5,3.5,0,0,0,0,6.3l11.17,5.39V71a7.47,7.47,0,0,0,5.27,7.16,81,81,0,0,0,48.42,0A7.47,7.47,0,0,0,79.48,71V49.11l6.15-3v23a3.5,3.5,0,0,0,7,0V40.57a3.48,3.48,0,0,0-.06-.62ZM72.48,71a.5.5,0,0,1-.35.48,74,74,0,0,1-44.26,0,.5.5,0,0,1-.35-.48V52.49l21,10.11a3.5,3.5,0,0,0,3,0l21-10.11ZM50,55.57l-31.07-15L50,25.58l31.07,15Z"/></svg>
