<svg xmlns="http://www.w3.org/2000/svg" xmlns:xlink="http://www.w3.org/1999/xlink" version="1.1" x="0px" y="0px" viewBox="0 0 100 100" style="enable-background:new 0 0 98 98;" xml:space="preserve"><path d="M73.7,37.2c-1.3-2.2-3.5-3.4-6-3.4h-8.6L66.6,11c0.7-2.1,0.3-4.5-1-6.3c-1.3-1.8-3.4-2.9-5.7-2.9H44.2  c-3,0-5.7,1.9-6.6,4.8l-13.9,42c-0.7,2.1-0.3,4.5,1,6.3s3.4,2.9,5.7,2.9h12.5L40.5,93c-0.1,1.4,0.8,2.7,2.2,3.1  c0.3,0.1,0.6,0.1,0.8,0.1c1.1,0,2.1-0.6,2.6-1.6l27.8-50.5C75,42,75,39.4,73.7,37.2z M68.6,41.3L47.3,79.9L49,55  c0.1-0.8-0.2-1.6-0.8-2.2c-0.6-0.6-1.4-0.9-2.2-0.9H30.3c-0.4,0-0.7-0.3-0.8-0.4c-0.1-0.2-0.3-0.5-0.1-0.9l13.9-42  c0.1-0.4,0.5-0.7,0.9-0.7h15.8c0.4,0,0.7,0.3,0.8,0.4c0.1,0.2,0.3,0.5,0.1,0.9l-8.8,26.8c-0.3,0.9-0.1,1.9,0.4,2.7s1.5,1.2,2.4,1.2  h12.8c0.5,0,0.8,0.3,0.9,0.5S68.8,40.9,68.6,41.3z"/></svg>
