<svg xmlns="http://www.w3.org/2000/svg" xmlns:xlink="http://www.w3.org/1999/xlink" version="1.1" x="0px" y="0px" viewBox="0 0 100 100" style="enable-background:new 0 0 96 96;" xml:space="preserve"><g><g>
<path d="M12,93h44c5,0,9-4,9-9v-7.8c0-9.4-6.7-17.4-16-19c-1-0.2-2.1,0.2-2.8,1C43.2,61.9,38.7,64,34,64s-9.2-2.1-12.2-5.7    c-0.7-0.8-1.7-1.2-2.8-1c-9.3,1.6-16,9.6-16,19V84C3,89,7,93,12,93z M9,76.2c0-5.9,3.9-11.1,9.5-12.7C22.6,67.7,28.1,70,34,70    s11.4-2.3,15.5-6.4c5.6,1.6,9.5,6.8,9.5,12.7V84c0,1.7-1.3,3-3,3H12c-1.7,0-3-1.3-3-3V76.2z"/><path d="M34,56c9.9,0,18-8.1,18-18s-8.1-18-18-18s-18,8.1-18,18S24.1,56,34,56z M34,26c6.6,0,12,5.4,12,12s-5.4,12-12,12    s-12-5.4-12-12S27.4,26,34,26z"/><path d="M71,63.4c7.2,0,13-5.8,13-13v-0.7c0-7.2-5.8-13-13-13s-13,5.8-13,13v0.7C58,57.5,63.8,63.4,71,63.4z M64,49.6    c0-3.9,3.1-7,7-7s7,3.1,7,7v0.7c0,3.9-3.1,7-7,7s-7-3.1-7-7V49.6z"/><path d="M81.8,63.1c-1.2-0.3-2.4,0.1-3.2,1.1c-2,2.6-6.6,4.3-10.2,3.9c-1.6-0.2-3.1,0.9-3.4,2.6c-0.2,1.6,0.9,3.1,2.6,3.4    c5,0.6,10.6-1.2,14.2-4.5c3,1.5,5.2,4.9,5.2,8.5v6c0,1.7-1.3,3-3,3H68c-1.7,0-3,1.3-3,3s1.3,3,3,3h16c5,0,9-4,9-9v-6    C93,71.1,88.3,64.8,81.8,63.1z"/></g></g></svg>
